<svg width="436" height="87" viewBox="0 0 436 87" fill="none" xmlns="http://www.w3.org/2000/svg">
<path d="M0.356445 86.25V85.95C2.60645 85.95 5.15645 85.05 8.15645 78.3L42.2064 0.749999H49.1064L83.9064 79.65C86.1564 84.6 87.9565 85.2 90.0564 85.95V86.25H75.0564V85.95C75.9565 85.8 77.0064 85.2 77.0064 83.7C77.0064 82.65 76.7065 81.3 75.8064 79.5L63.8064 52.5H20.4564L9.05645 78.45C8.30645 80.25 7.85645 81.6 7.85645 82.65C7.85645 85.5 10.2564 85.95 11.3064 85.95V86.25H0.356445ZM20.7564 51.75H63.5064L42.0564 3.45L20.7564 51.75Z" fill="#111111"/>
<path d="M108.601 87C99.6014 87 93.1514 82.8 93.1514 70.35V33.3C93.1514 28.95 92.8514 26.25 90.1514 25.05V24.75H103.651V25.05C100.951 26.25 100.651 28.95 100.651 33.3V70.5C100.651 78.15 103.951 82.65 112.051 82.65C121.951 82.65 129.751 76.5 140.401 62.85L147.451 53.7V33.3C147.451 28.95 147.151 26.25 144.451 25.05V24.75H157.951V25.05C155.251 26.25 154.951 28.95 154.951 33.3V75.15C154.951 80.85 155.401 84 157.951 85.95V86.25C156.901 86.7 155.851 87 154.201 87C148.951 87 147.451 81.9 147.451 75.15V54.9L137.551 67.95C128.551 79.65 120.451 87 108.601 87Z" fill="#111111"/>
<path d="M165.444 86.25V85.95C168.144 84.75 168.444 82.05 168.444 77.7V43.5C168.444 39.15 168.144 33.9 165.444 32.25V31.95C170.094 31.95 174.744 28.65 175.644 24.75H175.944V55.2L180.594 43.2C184.644 32.85 189.894 24 198.294 24C202.644 24 204.294 26.1 204.294 28.5C204.294 30.75 202.494 33 199.644 33C195.744 33 195.444 30.45 191.994 30.45C189.294 30.45 185.994 31.65 180.144 46.5L175.944 57V77.7C175.944 82.05 176.244 84.75 178.944 85.95V86.25H165.444Z" fill="#111111"/>
<path d="M236.495 87C217.895 87 204.995 76.8 204.995 55.5C204.995 33.75 218.045 24 237.095 24C253.145 24 264.395 30.75 264.395 42.9C264.395 64.5 231.695 64.35 219.395 78C223.745 82.8 230.045 85.2 237.995 85.2C252.095 85.2 261.845 77.55 261.845 64.05C261.845 61.8 261.695 59.4 261.095 56.85L261.845 56.55C262.445 59.25 262.745 61.8 262.745 64.2C262.745 79.2 251.645 87 236.495 87ZM218.945 77.4C231.095 63.75 256.895 64.35 256.895 42.9C256.895 33.45 251.495 24.75 237.545 24.75C221.495 24.75 212.495 33.45 212.495 55.5C212.495 65.25 214.745 72.45 218.945 77.4Z" fill="#111111"/>
<path d="M271.206 86.25V85.95C273.906 84.75 274.206 82.05 274.206 77.7V19.5C274.206 15.15 273.906 9.90001 271.206 8.25V7.95001C275.856 7.95001 280.506 4.65 281.406 0.749999H281.706V77.7C281.706 82.05 282.006 84.75 284.706 85.95V86.25H271.206Z" fill="#111111"/>
<path d="M297.403 10.5C294.403 10.5 292.153 8.25 292.153 5.25C292.153 2.25001 294.403 0 297.403 0C300.403 0 302.653 2.25001 302.653 5.25C302.653 8.25 300.403 10.5 297.403 10.5ZM292.153 86.25V85.95C294.853 84.75 295.153 82.05 295.153 77.7V43.5C295.153 39.15 294.853 33.9 292.153 32.25V31.95C296.803 31.95 301.453 28.65 302.353 24.75H302.653V77.7C302.653 82.05 302.953 84.75 305.653 85.95V86.25H292.153Z" fill="#111111"/>
<path d="M331.551 87C322.551 87 316.101 82.8 316.101 70.35V33.3C316.101 28.95 315.801 26.25 313.101 25.05V24.75H326.601V25.05C323.901 26.25 323.601 28.95 323.601 33.3V70.5C323.601 78.15 326.901 82.65 335.001 82.65C344.901 82.65 352.701 76.5 363.351 62.85L370.401 53.7V33.3C370.401 28.95 370.101 26.25 367.401 25.05V24.75H380.901V25.05C378.201 26.25 377.901 28.95 377.901 33.3V75.15C377.901 80.85 378.351 84 380.901 85.95V86.25C379.851 86.7 378.801 87 377.151 87C371.901 87 370.401 81.9 370.401 75.15V54.9L360.501 67.95C351.501 79.65 343.401 87 331.551 87Z" fill="#111111"/>
<path d="M412.394 87C396.344 87 388.394 80.25 388.394 72C388.394 66.75 391.994 61.95 398.144 61.95C396.794 64.5 396.044 67.5 396.044 70.5C396.044 78.45 401.144 86.25 412.844 86.25C421.694 86.25 428.144 82.95 428.144 73.5C428.144 57.3 388.994 54.45 388.994 37.2C388.994 30.3 394.844 24 411.044 24C425.894 24 434.894 28.95 434.894 35.85C434.894 39.3 432.644 40.95 430.394 40.95C428.144 40.95 425.894 39.3 425.894 35.85C425.894 29.4 423.194 24.75 411.044 24.75C403.094 24.75 396.494 28.05 396.494 34.5C396.494 49.2 435.644 51.9 435.644 70.95C435.644 82.05 424.544 87 412.394 87Z" fill="#111111"/>
</svg>
