<svg width="32" height="14" viewBox="0 0 32 14" fill="none" xmlns="http://www.w3.org/2000/svg">
<path d="M6.22697 2.26282C5.86257 2.69402 5.27953 3.03413 4.69649 2.98554C4.62361 2.4025 4.90906 1.78302 5.24309 1.4004C5.60749 0.95705 6.24519 0.641237 6.76143 0.616943C6.82216 1.22428 6.5853 1.81946 6.22697 2.26282ZM6.75535 3.10094C5.91116 3.05235 5.18843 3.58073 4.78759 3.58073C4.38068 3.58073 3.76727 3.12523 3.09921 3.13738C2.23072 3.14952 1.42297 3.64146 0.979616 4.42492C0.0686165 5.99184 0.742756 8.31185 1.62339 9.58725C2.0546 10.2189 2.57083 10.9112 3.25104 10.8869C3.89481 10.8627 4.14989 10.4679 4.92728 10.4679C5.71074 10.4679 5.93545 10.8869 6.61567 10.8748C7.32017 10.8627 7.76353 10.2432 8.19473 9.61155C8.68667 8.89489 8.88709 8.19646 8.89924 8.16002C8.88709 8.14787 7.53881 7.63164 7.52667 6.07687C7.51452 4.77717 8.5895 4.15769 8.63809 4.12125C8.03075 3.2224 7.08331 3.12523 6.75535 3.10094ZM11.6322 1.33967V10.808H13.102V7.57091H15.1365C16.995 7.57091 18.3008 6.29551 18.3008 4.44921C18.3008 2.60292 17.0193 1.33967 15.1851 1.33967H11.6322ZM13.102 2.57863H14.7964C16.0718 2.57863 16.8006 3.25884 16.8006 4.45529C16.8006 5.65173 16.0718 6.33802 14.7904 6.33802H13.102V2.57863ZM20.9852 10.8809C21.9083 10.8809 22.7647 10.4132 23.1533 9.67228H23.1837V10.808H24.5441V6.09509C24.5441 4.72859 23.4509 3.84795 21.7686 3.84795C20.2078 3.84795 19.0538 4.74073 19.0113 5.96755H20.3353C20.4446 5.38451 20.9852 5.00189 21.7261 5.00189C22.625 5.00189 23.129 5.42095 23.129 6.19226V6.71457L21.2949 6.82389C19.5883 6.92713 18.6652 7.62557 18.6652 8.84023C18.6652 10.067 19.6187 10.8809 20.9852 10.8809ZM21.3799 9.75731C20.5965 9.75731 20.0985 9.38076 20.0985 8.80379C20.0985 8.20861 20.5783 7.86243 21.4953 7.80777L23.129 7.70452V8.23897C23.129 9.12568 22.376 9.75731 21.3799 9.75731ZM26.3601 13.3831C27.7934 13.3831 28.4675 12.8365 29.0566 11.1785L31.6378 3.93905H30.1437L28.4128 9.53259H28.3825L26.6516 3.93905H25.115L27.6051 10.8323L27.4715 11.2513C27.2468 11.9619 26.8824 12.2352 26.2325 12.2352C26.1171 12.2352 25.8924 12.2231 25.8013 12.2109V13.3466C25.8863 13.3709 26.2507 13.3831 26.3601 13.3831Z" fill="white"/>
</svg>
