<svg width="210" height="40" viewBox="0 0 210 40" fill="none" xmlns="http://www.w3.org/2000/svg">
<rect width="209.186" height="40" transform="translate(0.449219)" fill="black"/>
<path d="M63.6672 25.5V15.476H67.3352C69.2672 15.476 70.4572 16.456 70.4572 18.066C70.4572 19.242 69.9392 20.04 68.9032 20.446C70.0652 20.824 70.6532 21.636 70.6532 22.868C70.6532 24.478 69.4492 25.5 67.5452 25.5H63.6672ZM67.3212 16.372H64.6752V20.04H67.4472C68.7072 20.04 69.4212 19.34 69.4212 18.15C69.4212 17.03 68.6652 16.372 67.3212 16.372ZM67.5452 20.922H64.6752V24.59H67.5452C68.8612 24.59 69.6312 23.904 69.6312 22.742C69.6312 21.608 68.8472 20.922 67.5452 20.922ZM76.7419 18.724H77.7079V25.5H76.8679L76.7419 24.352C76.3639 25.136 75.4259 25.668 74.3619 25.668C72.7659 25.668 71.8979 24.576 71.8979 22.924V18.71H72.8779V22.616C72.8779 24.226 73.5919 24.8 74.6699 24.8C75.9719 24.8 76.7419 23.932 76.7419 22.322V18.724ZM78.7542 28.454V27.656H79.4962C80.0842 27.656 80.6722 27.614 81.0082 26.704L81.3022 25.906L78.5582 18.724H79.5802L81.7642 24.632L83.9062 18.724H84.9002L81.7922 27.054C81.4002 28.118 80.7422 28.552 79.7762 28.552C79.3702 28.552 79.0622 28.524 78.7542 28.454ZM90.7808 25.5L88.5408 18.724H89.5348L90.8648 22.812C91.0188 23.26 91.1448 23.722 91.2848 24.268C91.3968 23.722 91.6208 23.036 91.6908 22.812L93.0348 18.724H94.0288L95.3588 22.812C95.4848 23.176 95.6528 23.764 95.7788 24.268C95.9188 23.708 95.9468 23.54 96.1848 22.812L97.5288 18.724H98.5368L96.2408 25.5H95.3028L93.9028 21.244C93.7348 20.74 93.6228 20.32 93.5388 19.914C93.4408 20.278 93.3288 20.684 93.1468 21.244L91.7468 25.5H90.7808ZM99.9395 16.862C99.5475 16.862 99.2255 16.54 99.2255 16.148C99.2255 15.756 99.5475 15.42 99.9395 15.42C100.331 15.42 100.667 15.756 100.667 16.148C100.667 16.54 100.331 16.862 99.9395 16.862ZM99.4635 25.5V18.724H100.429V25.5H99.4635ZM103.718 25.5H102.766V19.536H101.408V18.724H102.766V16.582H103.718V18.724H105.076V19.536H103.718V25.5ZM107.02 25.486H106.054V15.294H107.02V19.9C107.454 19.088 108.28 18.542 109.414 18.542C111.192 18.542 111.99 19.648 111.99 21.356V25.5H111.024V21.566C111.024 19.984 110.282 19.424 109.232 19.424C107.776 19.424 107.02 20.502 107.02 21.804V25.486Z" fill="white"/>
<path d="M122.224 15.2628C121.86 15.694 121.277 16.0341 120.694 15.9855C120.621 15.4025 120.906 14.783 121.24 14.4004C121.605 13.957 122.242 13.6412 122.758 13.6169C122.819 14.2243 122.582 14.8195 122.224 15.2628ZM122.752 16.1009C121.908 16.0523 121.186 16.5807 120.785 16.5807C120.378 16.5807 119.764 16.1252 119.096 16.1374C118.228 16.1495 117.42 16.6415 116.977 17.4249C116.066 18.9918 116.74 21.3119 117.62 22.5873C118.052 23.2189 118.568 23.9112 119.248 23.8869C119.892 23.8627 120.147 23.4679 120.924 23.4679C121.708 23.4679 121.933 23.8869 122.613 23.8748C123.317 23.8627 123.761 23.2432 124.192 22.6115C124.684 21.8949 124.884 21.1965 124.896 21.16C124.884 21.1479 123.536 20.6316 123.524 19.0769C123.512 17.7772 124.587 17.1577 124.635 17.1213C124.028 16.2224 123.08 16.1252 122.752 16.1009ZM127.629 14.3397V23.808H129.099V20.5709H131.134C132.992 20.5709 134.298 19.2955 134.298 17.4492C134.298 15.6029 133.016 14.3397 131.182 14.3397H127.629ZM129.099 15.5786H130.794C132.069 15.5786 132.798 16.2588 132.798 17.4553C132.798 18.6517 132.069 19.338 130.787 19.338H129.099V15.5786ZM136.982 23.8809C137.905 23.8809 138.762 23.4132 139.15 22.6723H139.181V23.808H140.541V19.0951C140.541 17.7286 139.448 16.848 137.766 16.848C136.205 16.848 135.051 17.7407 135.008 18.9675H136.332C136.442 18.3845 136.982 18.0019 137.723 18.0019C138.622 18.0019 139.126 18.4209 139.126 19.1923V19.7146L137.292 19.8239C135.585 19.9271 134.662 20.6256 134.662 21.8402C134.662 23.067 135.616 23.8809 136.982 23.8809ZM137.377 22.7573C136.594 22.7573 136.096 22.3808 136.096 21.8038C136.096 21.2086 136.575 20.8624 137.492 20.8078L139.126 20.7045V21.239C139.126 22.1257 138.373 22.7573 137.377 22.7573ZM142.357 26.3831C143.79 26.3831 144.465 25.8365 145.054 24.1785L147.635 16.9391H146.141L144.41 22.5326H144.38L142.649 16.9391H141.112L143.602 23.8323L143.469 24.2513C143.244 24.9619 142.879 25.2352 142.23 25.2352C142.114 25.2352 141.889 25.2231 141.798 25.2109V26.3466C141.883 26.3709 142.248 26.3831 142.357 26.3831Z" fill="white"/>
</svg>
