<svg width="436" height="133" viewBox="0 0 436 133" fill="none" xmlns="http://www.w3.org/2000/svg">
<path d="M0.356445 86.25V85.95C2.60645 85.95 5.15645 85.05 8.15645 78.3L42.2064 0.749999H49.1064L83.9064 79.65C86.1564 84.6 87.9565 85.2 90.0564 85.95V86.25H75.0564V85.95C75.9565 85.8 77.0064 85.2 77.0064 83.7C77.0064 82.65 76.7065 81.3 75.8064 79.5L63.8064 52.5H20.4564L9.05645 78.45C8.30645 80.25 7.85645 81.6 7.85645 82.65C7.85645 85.5 10.2564 85.95 11.3064 85.95V86.25H0.356445ZM20.7564 51.75H63.5064L42.0564 3.45L20.7564 51.75Z" fill="#111111"/>
<path d="M108.601 87C99.6014 87 93.1514 82.8 93.1514 70.35V33.3C93.1514 28.95 92.8514 26.25 90.1514 25.05V24.75H103.651V25.05C100.951 26.25 100.651 28.95 100.651 33.3V70.5C100.651 78.15 103.951 82.65 112.051 82.65C121.951 82.65 129.751 76.5 140.401 62.85L147.451 53.7V33.3C147.451 28.95 147.151 26.25 144.451 25.05V24.75H157.951V25.05C155.251 26.25 154.951 28.95 154.951 33.3V75.15C154.951 80.85 155.401 84 157.951 85.95V86.25C156.901 86.7 155.851 87 154.201 87C148.951 87 147.451 81.9 147.451 75.15V54.9L137.551 67.95C128.551 79.65 120.451 87 108.601 87Z" fill="#111111"/>
<path d="M165.444 86.25V85.95C168.144 84.75 168.444 82.05 168.444 77.7V43.5C168.444 39.15 168.144 33.9 165.444 32.25V31.95C170.094 31.95 174.744 28.65 175.644 24.75H175.944V55.2L180.594 43.2C184.644 32.85 189.894 24 198.294 24C202.644 24 204.294 26.1 204.294 28.5C204.294 30.75 202.494 33 199.644 33C195.744 33 195.444 30.45 191.994 30.45C189.294 30.45 185.994 31.65 180.144 46.5L175.944 57V77.7C175.944 82.05 176.244 84.75 178.944 85.95V86.25H165.444Z" fill="#111111"/>
<path d="M236.495 87C217.895 87 204.995 76.8 204.995 55.5C204.995 33.75 218.045 24 237.095 24C253.145 24 264.395 30.75 264.395 42.9C264.395 64.5 231.695 64.35 219.395 78C223.745 82.8 230.045 85.2 237.995 85.2C252.095 85.2 261.845 77.55 261.845 64.05C261.845 61.8 261.695 59.4 261.095 56.85L261.845 56.55C262.445 59.25 262.745 61.8 262.745 64.2C262.745 79.2 251.645 87 236.495 87ZM218.945 77.4C231.095 63.75 256.895 64.35 256.895 42.9C256.895 33.45 251.495 24.75 237.545 24.75C221.495 24.75 212.495 33.45 212.495 55.5C212.495 65.25 214.745 72.45 218.945 77.4Z" fill="#111111"/>
<path d="M271.206 86.25V85.95C273.906 84.75 274.206 82.05 274.206 77.7V19.5C274.206 15.15 273.906 9.90001 271.206 8.25V7.95001C275.856 7.95001 280.506 4.65 281.406 0.749999H281.706V77.7C281.706 82.05 282.006 84.75 284.706 85.95V86.25H271.206Z" fill="#111111"/>
<path d="M297.403 10.5C294.403 10.5 292.153 8.25 292.153 5.25C292.153 2.25001 294.403 0 297.403 0C300.403 0 302.653 2.25001 302.653 5.25C302.653 8.25 300.403 10.5 297.403 10.5ZM292.153 86.25V85.95C294.853 84.75 295.153 82.05 295.153 77.7V43.5C295.153 39.15 294.853 33.9 292.153 32.25V31.95C296.803 31.95 301.453 28.65 302.353 24.75H302.653V77.7C302.653 82.05 302.953 84.75 305.653 85.95V86.25H292.153Z" fill="#111111"/>
<path d="M331.551 87C322.551 87 316.101 82.8 316.101 70.35V33.3C316.101 28.95 315.801 26.25 313.101 25.05V24.75H326.601V25.05C323.901 26.25 323.601 28.95 323.601 33.3V70.5C323.601 78.15 326.901 82.65 335.001 82.65C344.901 82.65 352.701 76.5 363.351 62.85L370.401 53.7V33.3C370.401 28.95 370.101 26.25 367.401 25.05V24.75H380.901V25.05C378.201 26.25 377.901 28.95 377.901 33.3V75.15C377.901 80.85 378.351 84 380.901 85.95V86.25C379.851 86.7 378.801 87 377.151 87C371.901 87 370.401 81.9 370.401 75.15V54.9L360.501 67.95C351.501 79.65 343.401 87 331.551 87Z" fill="#111111"/>
<path d="M412.394 87C396.344 87 388.394 80.25 388.394 72C388.394 66.75 391.994 61.95 398.144 61.95C396.794 64.5 396.044 67.5 396.044 70.5C396.044 78.45 401.144 86.25 412.844 86.25C421.694 86.25 428.144 82.95 428.144 73.5C428.144 57.3 388.994 54.45 388.994 37.2C388.994 30.3 394.844 24 411.044 24C425.894 24 434.894 28.95 434.894 35.85C434.894 39.3 432.644 40.95 430.394 40.95C428.144 40.95 425.894 39.3 425.894 35.85C425.894 29.4 423.194 24.75 411.044 24.75C403.094 24.75 396.494 28.05 396.494 34.5C396.494 49.2 435.644 51.9 435.644 70.95C435.644 82.05 424.544 87 412.394 87Z" fill="#111111"/>
<path d="M49.8842 127V115.544H54.0762C56.2842 115.544 57.6442 116.664 57.6442 118.504C57.6442 119.848 57.0522 120.76 55.8682 121.224C57.1962 121.656 57.8682 122.584 57.8682 123.992C57.8682 125.832 56.4922 127 54.3162 127H49.8842ZM54.0602 116.568H51.0362V120.76H54.2042C55.6442 120.76 56.4602 119.96 56.4602 118.6C56.4602 117.32 55.5962 116.568 54.0602 116.568ZM54.3162 121.768H51.0362V125.96H54.3162C55.8202 125.96 56.7002 125.176 56.7002 123.848C56.7002 122.552 55.8042 121.768 54.3162 121.768ZM62.9547 127.192C60.6827 127.192 59.1627 125.56 59.1627 123.128C59.1627 120.712 60.6667 119.048 62.8747 119.048C64.9707 119.048 66.3947 120.536 66.3947 122.728V123.272H60.2347C60.3147 125.16 61.3067 126.248 62.9707 126.248C64.2347 126.248 65.0507 125.704 65.3387 124.68H66.3947C65.9787 126.312 64.7787 127.192 62.9547 127.192ZM62.8747 119.992C61.4187 119.992 60.4587 120.952 60.2667 122.472H65.2907C65.2907 120.984 64.3307 119.992 62.8747 119.992ZM74.3733 127H73.2853V120.184H71.7333V119.256H73.2853V116.808H74.3733V119.256H75.9253V120.184H74.3733V127ZM78.4669 126.984H77.3629V115.336H78.4669V120.6C78.9629 119.672 79.9069 119.048 81.2029 119.048C83.2349 119.048 84.1469 120.312 84.1469 122.264V127H83.0429V122.504C83.0429 120.696 82.1949 120.056 80.9949 120.056C79.3309 120.056 78.4669 121.288 78.4669 122.776V126.984ZM89.5953 127.192C87.3233 127.192 85.8033 125.56 85.8033 123.128C85.8033 120.712 87.3073 119.048 89.5153 119.048C91.6113 119.048 93.0353 120.536 93.0353 122.728V123.272H86.8753C86.9553 125.16 87.9473 126.248 89.6113 126.248C90.8753 126.248 91.6913 125.704 91.9793 124.68H93.0353C92.6193 126.312 91.4193 127.192 89.5953 127.192ZM89.5153 119.992C88.0593 119.992 87.0993 120.952 86.9073 122.472H91.9313C91.9313 120.984 90.9713 119.992 89.5153 119.992ZM104.342 127V120.184H100.662V127H99.5579V120.184H98.3739V119.256H99.5579V117.752C99.5579 116.008 100.502 115.336 101.654 115.336C101.926 115.336 102.262 115.352 102.518 115.4V116.36H101.846C100.918 116.36 100.662 116.84 100.662 117.752V119.256H105.446V127H104.342ZM104.886 117.048C104.438 117.048 104.118 116.728 104.118 116.28C104.118 115.832 104.438 115.496 104.886 115.496C105.318 115.496 105.654 115.832 105.654 116.28C105.654 116.728 105.318 117.048 104.886 117.048ZM111.755 119.16V120.152H111.147C109.723 120.152 108.811 121.112 108.811 122.584V127H107.707V119.256H108.747L108.827 120.456C109.131 119.624 109.947 119.08 111.035 119.08C111.275 119.08 111.483 119.096 111.755 119.16ZM112.566 124.824H113.622C113.622 125.72 114.294 126.28 115.382 126.28C116.582 126.28 117.286 125.768 117.286 124.936C117.286 124.296 116.966 123.928 116.054 123.704L114.726 123.368C113.382 123.032 112.726 122.328 112.726 121.272C112.726 119.912 113.862 119.048 115.526 119.048C117.158 119.048 118.214 119.944 118.262 121.384H117.19C117.158 120.488 116.534 119.96 115.494 119.96C114.406 119.96 113.798 120.424 113.798 121.256C113.798 121.848 114.214 122.264 115.062 122.472L116.39 122.808C117.734 123.144 118.342 123.768 118.342 124.888C118.342 126.28 117.158 127.192 115.398 127.192C113.654 127.192 112.566 126.264 112.566 124.824ZM121.936 127H120.848V120.184H119.296V119.256H120.848V116.808H121.936V119.256H123.488V120.184H121.936V127ZM131.139 127H130.051V120.184H128.499V119.256H130.051V116.808H131.139V119.256H132.691V120.184H131.139V127ZM133.506 123.128C133.506 120.76 135.17 119.048 137.442 119.048C139.714 119.048 141.378 120.76 141.378 123.128C141.378 125.48 139.714 127.192 137.442 127.192C135.17 127.192 133.506 125.48 133.506 123.128ZM134.626 123.112C134.626 124.936 135.778 126.2 137.442 126.2C139.09 126.2 140.258 124.936 140.258 123.112C140.258 121.32 139.09 120.04 137.442 120.04C135.778 120.04 134.626 121.32 134.626 123.112ZM152.686 127V120.184H149.006V127H147.902V120.184H146.718V119.256H147.902V117.752C147.902 116.008 148.846 115.336 149.998 115.336C150.27 115.336 150.606 115.352 150.862 115.4V116.36H150.19C149.262 116.36 149.006 116.84 149.006 117.752V119.256H153.79V127H152.686ZM153.23 117.048C152.782 117.048 152.462 116.728 152.462 116.28C152.462 115.832 152.782 115.496 153.23 115.496C153.662 115.496 153.998 115.832 153.998 116.28C153.998 116.728 153.662 117.048 153.23 117.048ZM157.154 127H156.05V119.256H157.01L157.17 120.6C157.682 119.608 158.706 119.048 159.826 119.048C161.954 119.048 162.834 120.312 162.834 122.264V127H161.73V122.504C161.73 120.696 160.914 120.056 159.634 120.056C158.05 120.056 157.154 121.208 157.154 122.952V127ZM168.075 127.192C165.819 127.192 164.491 125.464 164.491 123.144C164.491 120.808 165.819 119.048 168.123 119.048C169.403 119.048 170.427 119.608 170.971 120.728V115.336H172.075V127H171.115L171.003 125.416C170.459 126.616 169.371 127.192 168.075 127.192ZM168.267 126.184C169.963 126.184 170.955 124.904 170.955 123.112C170.955 121.336 169.963 120.04 168.267 120.04C166.587 120.04 165.611 121.336 165.611 123.112C165.611 124.904 166.587 126.184 168.267 126.184ZM178.272 123.128C178.272 120.76 179.936 119.048 182.208 119.048C184.48 119.048 186.144 120.76 186.144 123.128C186.144 125.48 184.48 127.192 182.208 127.192C179.936 127.192 178.272 125.48 178.272 123.128ZM179.392 123.112C179.392 124.936 180.544 126.2 182.208 126.2C183.856 126.2 185.024 124.936 185.024 123.112C185.024 121.32 183.856 120.04 182.208 120.04C180.544 120.04 179.392 121.32 179.392 123.112ZM193.162 119.256H194.266V127H193.306L193.162 125.688C192.73 126.584 191.658 127.192 190.442 127.192C188.618 127.192 187.626 125.944 187.626 124.056V119.24H188.746V123.704C188.746 125.544 189.562 126.2 190.794 126.2C192.282 126.2 193.162 125.208 193.162 123.368V119.256ZM198.342 127H197.254V120.184H195.702V119.256H197.254V116.808H198.342V119.256H199.894V120.184H198.342V127ZM207.993 127.192C206.345 127.192 205.369 126.264 205.369 124.904C205.369 123.48 206.457 122.584 208.265 122.44L210.825 122.232V121.976C210.825 120.456 209.913 119.976 208.777 119.976C207.433 119.976 206.633 120.584 206.633 121.624H205.625C205.625 120.056 206.905 119.048 208.809 119.048C210.601 119.048 211.913 119.944 211.913 121.992V127H210.985L210.841 125.64C210.361 126.616 209.305 127.192 207.993 127.192ZM208.249 126.296C209.881 126.296 210.825 125.16 210.825 123.48V123.064L208.537 123.24C207.081 123.368 206.489 124.008 206.489 124.872C206.489 125.816 207.193 126.296 208.249 126.296ZM215.089 127H214.129V115.336H215.233V120.76C215.777 119.624 216.833 119.048 218.145 119.048C220.401 119.048 221.713 120.808 221.713 123.144C221.713 125.464 220.369 127.192 218.113 127.192C216.817 127.192 215.745 126.616 215.201 125.416L215.089 127ZM215.249 123.112C215.249 124.904 216.241 126.184 217.937 126.184C219.617 126.184 220.593 124.904 220.593 123.112C220.593 121.336 219.617 120.04 217.937 120.04C216.241 120.04 215.249 121.336 215.249 123.112ZM222.928 123.128C222.928 120.76 224.592 119.048 226.864 119.048C229.136 119.048 230.8 120.76 230.8 123.128C230.8 125.48 229.136 127.192 226.864 127.192C224.592 127.192 222.928 125.48 222.928 123.128ZM224.048 123.112C224.048 124.936 225.2 126.2 226.864 126.2C228.512 126.2 229.68 124.936 229.68 123.112C229.68 121.32 228.512 120.04 226.864 120.04C225.2 120.04 224.048 121.32 224.048 123.112ZM237.819 119.256H238.923V127H237.963L237.819 125.688C237.387 126.584 236.315 127.192 235.099 127.192C233.275 127.192 232.283 125.944 232.283 124.056V119.24H233.403V123.704C233.403 125.544 234.219 126.2 235.451 126.2C236.939 126.2 237.819 125.208 237.819 123.368V119.256ZM242.998 127H241.91V120.184H240.358V119.256H241.91V116.808H242.998V119.256H244.55V120.184H242.998V127ZM253.465 127.192C251.209 127.192 249.881 125.464 249.881 123.144C249.881 120.808 251.209 119.048 253.513 119.048C254.793 119.048 255.817 119.608 256.361 120.728V115.336H257.465V127H256.505L256.393 125.416C255.849 126.616 254.761 127.192 253.465 127.192ZM253.657 126.184C255.353 126.184 256.345 124.904 256.345 123.112C256.345 121.336 255.353 120.04 253.657 120.04C251.977 120.04 251.001 121.336 251.001 123.112C251.001 124.904 251.977 126.184 253.657 126.184ZM260.313 117.128C259.865 117.128 259.497 116.76 259.497 116.312C259.497 115.864 259.865 115.48 260.313 115.48C260.761 115.48 261.145 115.864 261.145 116.312C261.145 116.76 260.761 117.128 260.313 117.128ZM259.769 127V119.256H260.873V127H259.769ZM262.519 124.824H263.575C263.575 125.72 264.247 126.28 265.335 126.28C266.535 126.28 267.239 125.768 267.239 124.936C267.239 124.296 266.919 123.928 266.007 123.704L264.679 123.368C263.335 123.032 262.679 122.328 262.679 121.272C262.679 119.912 263.815 119.048 265.479 119.048C267.111 119.048 268.167 119.944 268.215 121.384H267.143C267.111 120.488 266.487 119.96 265.447 119.96C264.359 119.96 263.751 120.424 263.751 121.256C263.751 121.848 264.167 122.264 265.015 122.472L266.343 122.808C267.687 123.144 268.295 123.768 268.295 124.888C268.295 126.28 267.111 127.192 265.351 127.192C263.607 127.192 262.519 126.264 262.519 124.824ZM269.569 123.144C269.569 120.712 271.057 119.048 273.313 119.048C275.105 119.048 276.417 120.088 276.721 121.688H275.617C275.329 120.616 274.401 120.024 273.329 120.024C271.761 120.024 270.657 121.224 270.657 123.128C270.657 124.968 271.681 126.2 273.249 126.2C274.401 126.2 275.329 125.56 275.633 124.568H276.753C276.385 126.152 275.009 127.192 273.249 127.192C271.057 127.192 269.569 125.576 269.569 123.144ZM277.881 123.128C277.881 120.76 279.545 119.048 281.817 119.048C284.089 119.048 285.753 120.76 285.753 123.128C285.753 125.48 284.089 127.192 281.817 127.192C279.545 127.192 277.881 125.48 277.881 123.128ZM279.001 123.112C279.001 124.936 280.153 126.2 281.817 126.2C283.465 126.2 284.633 124.936 284.633 123.112C284.633 121.32 283.465 120.04 281.817 120.04C280.153 120.04 279.001 121.32 279.001 123.112ZM292.772 119.256H293.876V127H292.916L292.772 125.688C292.34 126.584 291.268 127.192 290.052 127.192C288.228 127.192 287.236 125.944 287.236 124.056V119.24H288.356V123.704C288.356 125.544 289.172 126.2 290.404 126.2C291.892 126.2 292.772 125.208 292.772 123.368V119.256ZM297.279 127H296.175V119.256H297.135L297.295 120.6C297.807 119.608 298.831 119.048 299.951 119.048C302.079 119.048 302.959 120.312 302.959 122.264V127H301.855V122.504C301.855 120.696 301.039 120.056 299.759 120.056C298.175 120.056 297.279 121.208 297.279 122.952V127ZM306.936 127H305.848V120.184H304.296V119.256H305.848V116.808H306.936V119.256H308.488V120.184H306.936V127ZM309.269 124.824H310.325C310.325 125.72 310.997 126.28 312.085 126.28C313.285 126.28 313.989 125.768 313.989 124.936C313.989 124.296 313.669 123.928 312.757 123.704L311.429 123.368C310.085 123.032 309.429 122.328 309.429 121.272C309.429 119.912 310.565 119.048 312.229 119.048C313.861 119.048 314.917 119.944 314.965 121.384H313.893C313.861 120.488 313.237 119.96 312.197 119.96C311.109 119.96 310.501 120.424 310.501 121.256C310.501 121.848 310.917 122.264 311.765 122.472L313.093 122.808C314.437 123.144 315.045 123.768 315.045 124.888C315.045 126.28 313.861 127.192 312.101 127.192C310.357 127.192 309.269 126.264 309.269 124.824ZM323.524 127.192C321.876 127.192 320.9 126.264 320.9 124.904C320.9 123.48 321.988 122.584 323.796 122.44L326.356 122.232V121.976C326.356 120.456 325.444 119.976 324.308 119.976C322.964 119.976 322.164 120.584 322.164 121.624H321.156C321.156 120.056 322.436 119.048 324.34 119.048C326.132 119.048 327.444 119.944 327.444 121.992V127H326.516L326.372 125.64C325.892 126.616 324.836 127.192 323.524 127.192ZM323.78 126.296C325.412 126.296 326.356 125.16 326.356 123.48V123.064L324.068 123.24C322.612 123.368 322.02 124.008 322.02 124.872C322.02 125.816 322.724 126.296 323.78 126.296ZM330.764 127H329.66V119.256H330.62L330.78 120.6C331.292 119.608 332.316 119.048 333.436 119.048C335.564 119.048 336.444 120.312 336.444 122.264V127H335.34V122.504C335.34 120.696 334.524 120.056 333.244 120.056C331.66 120.056 330.764 121.208 330.764 122.952V127ZM341.684 127.192C339.428 127.192 338.1 125.464 338.1 123.144C338.1 120.808 339.428 119.048 341.732 119.048C343.012 119.048 344.036 119.608 344.58 120.728V115.336H345.684V127H344.724L344.612 125.416C344.068 126.616 342.98 127.192 341.684 127.192ZM341.876 126.184C343.572 126.184 344.564 124.904 344.564 123.112C344.564 121.336 343.572 120.04 341.876 120.04C340.196 120.04 339.22 121.336 339.22 123.112C339.22 124.904 340.196 126.184 341.876 126.184ZM353.529 127H352.425V119.256H353.385L353.513 120.36C353.897 119.544 354.761 119.048 355.849 119.048C357.065 119.048 357.977 119.688 358.345 120.696C358.697 119.688 359.641 119.048 360.889 119.048C362.569 119.048 363.673 120.136 363.673 121.928V127H362.601V122.152C362.601 120.824 361.865 120.04 360.681 120.04C359.385 120.04 358.617 121.016 358.617 122.216V127H357.529V122.136C357.529 120.824 356.777 120.056 355.609 120.056C354.313 120.056 353.529 121.016 353.529 122.2V127ZM365.35 123.128C365.35 120.76 367.014 119.048 369.286 119.048C371.558 119.048 373.222 120.76 373.222 123.128C373.222 125.48 371.558 127.192 369.286 127.192C367.014 127.192 365.35 125.48 365.35 123.128ZM366.47 123.112C366.47 124.936 367.622 126.2 369.286 126.2C370.934 126.2 372.102 124.936 372.102 123.112C372.102 121.32 370.934 120.04 369.286 120.04C367.622 120.04 366.47 121.32 366.47 123.112ZM379.036 119.16V120.152H378.428C377.004 120.152 376.092 121.112 376.092 122.584V127H374.988V119.256H376.028L376.108 120.456C376.412 119.624 377.228 119.08 378.316 119.08C378.556 119.08 378.764 119.096 379.036 119.16ZM383.455 127.192C381.183 127.192 379.663 125.56 379.663 123.128C379.663 120.712 381.167 119.048 383.375 119.048C385.471 119.048 386.895 120.536 386.895 122.728V123.272H380.735C380.815 125.16 381.807 126.248 383.471 126.248C384.735 126.248 385.551 125.704 385.839 124.68H386.895C386.479 126.312 385.279 127.192 383.455 127.192ZM383.375 119.992C381.919 119.992 380.959 120.952 380.767 122.472H385.791C385.791 120.984 384.831 119.992 383.375 119.992Z" fill="#525151"/>
</svg>
