<svg width="41" height="16" viewBox="0 0 41 16" fill="none" xmlns="http://www.w3.org/2000/svg">
<path d="M19.3907 7.8205V12.4135H17.9336V1.07083H21.798C22.2593 1.06119 22.7179 1.14301 23.1474 1.31154C23.5769 1.48008 23.9688 1.73201 24.3004 2.05278C24.6354 2.35408 24.902 2.7236 25.0823 3.13649C25.2626 3.54938 25.3524 3.99608 25.3457 4.44657C25.3553 4.89947 25.2669 5.34909 25.0865 5.76461C24.906 6.18013 24.6379 6.55173 24.3004 6.85394C23.6247 7.49831 22.7906 7.8202 21.798 7.8196H19.3907V7.8205ZM19.3907 2.46728V6.42676H21.8342C22.1021 6.4347 22.3687 6.38665 22.617 6.28566C22.8652 6.18468 23.0897 6.03299 23.276 5.84031C23.4613 5.66015 23.6086 5.44467 23.7091 5.2066C23.8097 4.96853 23.8615 4.71271 23.8615 4.45426C23.8615 4.19582 23.8097 3.94 23.7091 3.70193C23.6086 3.46386 23.4613 3.24838 23.276 3.06822C23.092 2.87147 22.8683 2.71607 22.6198 2.61231C22.3712 2.50855 22.1035 2.45881 21.8342 2.46638H19.3907V2.46728Z" fill="white"/>
<path d="M28.7042 4.39954C29.7811 4.39954 30.6313 4.68733 31.2545 5.26293C31.8778 5.83852 32.1891 6.62771 32.1885 7.63047V12.4135H30.7948V11.3365H30.7314C30.1281 12.2235 29.3256 12.6669 28.3241 12.6669C27.4691 12.6669 26.7538 12.4135 26.1782 11.9067C25.902 11.6741 25.6812 11.3828 25.5318 11.054C25.3824 10.7252 25.3083 10.3672 25.3149 10.0062C25.3149 9.2031 25.6183 8.56446 26.2253 8.09022C26.8323 7.61599 27.6426 7.37827 28.6562 7.37707C29.5214 7.37707 30.234 7.53545 30.7939 7.8522V7.51915C30.7955 7.273 30.7424 7.02957 30.6383 6.80651C30.5342 6.58344 30.3817 6.38634 30.192 6.2295C29.8067 5.88186 29.3045 5.69217 28.7856 5.69825C27.9717 5.69825 27.3276 6.04155 26.8534 6.72816L25.5701 5.91998C26.276 4.90635 27.3207 4.39954 28.7042 4.39954ZM26.819 10.0378C26.818 10.2233 26.8614 10.4063 26.9454 10.5716C27.0295 10.7369 27.1518 10.8797 27.3023 10.9881C27.6245 11.2416 28.0245 11.3759 28.4345 11.3682C29.0493 11.3672 29.6387 11.1225 30.0735 10.6876C30.5561 10.2333 30.7975 9.70026 30.7975 9.08847C30.3432 8.72646 29.7096 8.54545 28.8969 8.54545C28.3051 8.54545 27.8115 8.68814 27.4163 8.97353C27.0172 9.26314 26.819 9.61519 26.819 10.0378Z" fill="white"/>
<path d="M40.1891 4.65295L35.3237 15.8345H33.8195L35.625 11.9221L32.4258 4.65295H34.0096L36.3219 10.2279H36.3536L38.6026 4.65295H40.1891Z" fill="white"/>
<path d="M13.5034 6.83033C13.504 6.38628 13.4664 5.943 13.3912 5.50537H7.24609V8.015H10.7657C10.6937 8.41583 10.5413 8.79792 10.3176 9.13824C10.0939 9.47857 9.80367 9.77007 9.46431 9.9952V11.6242H11.5649C12.7948 10.4902 13.5034 8.81323 13.5034 6.83033Z" fill="#4285F4"/>
<path d="M7.2478 13.1983C9.00626 13.1983 10.4869 12.6208 11.5666 11.6253L9.46602 9.99627C8.88137 10.3927 8.12839 10.6189 7.2478 10.6189C5.54817 10.6189 4.10556 9.47317 3.58969 7.9292H1.42578V9.60802C1.96813 10.6872 2.79977 11.5945 3.82784 12.2285C4.85592 12.8624 6.03997 13.1982 7.2478 13.1983Z" fill="#34A853"/>
<path d="M3.58824 7.92917C3.31552 7.12012 3.31552 6.24398 3.58824 5.43492V3.7561H1.42433C0.968081 4.66398 0.730469 5.66598 0.730469 6.68205C0.730469 7.69812 0.968081 8.70011 1.42433 9.60799L3.58824 7.92917Z" fill="#FBBC04"/>
<path d="M7.2478 2.74515C8.17707 2.72997 9.07499 3.08107 9.74748 3.72258L11.6073 1.86275C10.428 0.755072 8.86564 0.146937 7.2478 0.165833C6.03997 0.165888 4.85592 0.501646 3.82784 1.13562C2.79977 1.7696 1.96813 2.67684 1.42578 3.75606L3.58969 5.43488C4.10556 3.89091 5.54817 2.74515 7.2478 2.74515Z" fill="#EA4335"/>
</svg>
