<svg width="211" height="40" viewBox="0 0 211 40" fill="none" xmlns="http://www.w3.org/2000/svg">
<rect width="209.553" height="40" transform="translate(0.636719)" fill="black"/>
<path d="M59.8547 25.5V15.476H63.5227C65.4547 15.476 66.6447 16.456 66.6447 18.066C66.6447 19.242 66.1267 20.04 65.0907 20.446C66.2527 20.824 66.8407 21.636 66.8407 22.868C66.8407 24.478 65.6367 25.5 63.7327 25.5H59.8547ZM63.5087 16.372H60.8627V20.04H63.6347C64.8947 20.04 65.6087 19.34 65.6087 18.15C65.6087 17.03 64.8527 16.372 63.5087 16.372ZM63.7327 20.922H60.8627V24.59H63.7327C65.0487 24.59 65.8187 23.904 65.8187 22.742C65.8187 21.608 65.0347 20.922 63.7327 20.922ZM72.9294 18.724H73.8954V25.5H73.0554L72.9294 24.352C72.5514 25.136 71.6134 25.668 70.5494 25.668C68.9534 25.668 68.0854 24.576 68.0854 22.924V18.71H69.0654V22.616C69.0654 24.226 69.7794 24.8 70.8574 24.8C72.1594 24.8 72.9294 23.932 72.9294 22.322V18.724ZM74.9417 28.454V27.656H75.6837C76.2717 27.656 76.8597 27.614 77.1957 26.704L77.4897 25.906L74.7457 18.724H75.7677L77.9517 24.632L80.0937 18.724H81.0877L77.9797 27.054C77.5877 28.118 76.9297 28.552 75.9637 28.552C75.5577 28.552 75.2497 28.524 74.9417 28.454ZM86.9683 25.5L84.7283 18.724H85.7223L87.0523 22.812C87.2063 23.26 87.3323 23.722 87.4723 24.268C87.5843 23.722 87.8083 23.036 87.8783 22.812L89.2223 18.724H90.2163L91.5463 22.812C91.6723 23.176 91.8403 23.764 91.9663 24.268C92.1063 23.708 92.1343 23.54 92.3723 22.812L93.7163 18.724H94.7243L92.4283 25.5H91.4903L90.0903 21.244C89.9223 20.74 89.8103 20.32 89.7263 19.914C89.6283 20.278 89.5163 20.684 89.3343 21.244L87.9343 25.5H86.9683ZM96.127 16.862C95.735 16.862 95.413 16.54 95.413 16.148C95.413 15.756 95.735 15.42 96.127 15.42C96.519 15.42 96.855 15.756 96.855 16.148C96.855 16.54 96.519 16.862 96.127 16.862ZM95.651 25.5V18.724H96.617V25.5H95.651ZM99.9054 25.5H98.9534V19.536H97.5954V18.724H98.9534V16.582H99.9054V18.724H101.263V19.536H99.9054V25.5ZM103.207 25.486H102.241V15.294H103.207V19.9C103.641 19.088 104.467 18.542 105.601 18.542C107.379 18.542 108.177 19.648 108.177 21.356V25.5H107.211V21.566C107.211 19.984 106.469 19.424 105.419 19.424C103.963 19.424 103.207 20.502 103.207 21.804V25.486Z" fill="white"/>
<path d="M131.391 19.8205V24.4135H129.934V13.0708H133.798C134.259 13.0612 134.718 13.143 135.147 13.3115C135.577 13.4801 135.969 13.732 136.3 14.0528C136.635 14.3541 136.902 14.7236 137.082 15.1365C137.263 15.5494 137.352 15.9961 137.346 16.4466C137.355 16.8995 137.267 17.3491 137.086 17.7646C136.906 18.1801 136.638 18.5517 136.3 18.8539C135.625 19.4983 134.791 19.8202 133.798 19.8196H131.391V19.8205ZM131.391 14.4673V18.4268H133.834C134.102 18.4347 134.369 18.3866 134.617 18.2857C134.865 18.1847 135.09 18.033 135.276 17.8403C135.461 17.6602 135.609 17.4447 135.709 17.2066C135.81 16.9685 135.862 16.7127 135.862 16.4543C135.862 16.1958 135.81 15.94 135.709 15.7019C135.609 15.4639 135.461 15.2484 135.276 15.0682C135.092 14.8715 134.868 14.7161 134.62 14.6123C134.371 14.5086 134.103 14.4588 133.834 14.4664H131.391V14.4673Z" fill="white"/>
<path d="M140.704 16.3997C141.781 16.3997 142.631 16.6875 143.255 17.2631C143.878 17.8386 144.189 18.6278 144.189 19.6306V24.4136H142.795V23.3367H142.731C142.128 24.2236 141.326 24.6671 140.324 24.6671C139.469 24.6671 138.754 24.4136 138.178 23.9068C137.902 23.6742 137.681 23.3829 137.532 23.0541C137.382 22.7253 137.308 22.3674 137.315 22.0063C137.315 21.2032 137.618 20.5646 138.225 20.0903C138.832 19.6161 139.643 19.3784 140.656 19.3772C141.521 19.3772 142.234 19.5356 142.794 19.8523V19.5193C142.796 19.2731 142.742 19.0297 142.638 18.8066C142.534 18.5836 142.382 18.3865 142.192 18.2296C141.807 17.882 141.305 17.6923 140.786 17.6984C139.972 17.6984 139.328 18.0417 138.853 18.7283L137.57 17.9201C138.276 16.9065 139.321 16.3997 140.704 16.3997ZM138.819 22.038C138.818 22.2234 138.861 22.4064 138.945 22.5717C139.03 22.737 139.152 22.8798 139.302 22.9882C139.625 23.2417 140.025 23.376 140.434 23.3683C141.049 23.3673 141.639 23.1226 142.073 22.6878C142.556 22.2334 142.797 21.7004 142.797 21.0886C142.343 20.7266 141.71 20.5456 140.897 20.5456C140.305 20.5456 139.812 20.6883 139.416 20.9737C139.017 21.2633 138.819 21.6153 138.819 22.038Z" fill="white"/>
<path d="M152.189 16.6531L147.324 27.8347H145.82L147.625 23.9222L144.426 16.6531H146.01L148.322 22.228H148.354L150.603 16.6531H152.189Z" fill="white"/>
<path d="M125.503 18.8306C125.504 18.3865 125.466 17.9432 125.391 17.5056H119.246V20.0152H122.766C122.694 20.4161 122.541 20.7982 122.318 21.1385C122.094 21.4788 121.804 21.7703 121.464 21.9954V23.6245H123.565C124.795 22.4905 125.503 20.8135 125.503 18.8306Z" fill="#4285F4"/>
<path d="M119.248 25.1983C121.006 25.1983 122.487 24.6208 123.567 23.6253L121.466 21.9963C120.881 22.3927 120.128 22.6189 119.248 22.6189C117.548 22.6189 116.106 21.4732 115.59 19.9292H113.426V21.608C113.968 22.6872 114.8 23.5945 115.828 24.2285C116.856 24.8624 118.04 25.1982 119.248 25.1983Z" fill="#34A853"/>
<path d="M115.588 19.9294C115.316 19.1204 115.316 18.2442 115.588 17.4352V15.7563H113.424C112.968 16.6642 112.73 17.6662 112.73 18.6823C112.73 19.6984 112.968 20.7004 113.424 21.6082L115.588 19.9294Z" fill="#FBBC04"/>
<path d="M119.248 14.7453C120.177 14.7301 121.075 15.0812 121.747 15.7227L123.607 13.8629C122.428 12.7552 120.866 12.1471 119.248 12.166C118.04 12.166 116.856 12.5018 115.828 13.1357C114.8 13.7697 113.968 14.677 113.426 15.7562L115.59 17.435C116.106 15.891 117.548 14.7453 119.248 14.7453Z" fill="#EA4335"/>
</svg>
