<svg width="47" height="12" viewBox="0 0 47 12" fill="none" xmlns="http://www.w3.org/2000/svg">
<path d="M17.4284 2.8717H14.8631C14.6876 2.8717 14.5383 2.99924 14.5109 3.17253L13.4734 9.75052C13.4528 9.8803 13.5533 9.99733 13.6849 9.99733H14.9096C15.0852 9.99733 15.2345 9.8698 15.2618 9.69613L15.5417 7.92194C15.5687 7.74827 15.7183 7.62074 15.8935 7.62074H16.7056C18.3954 7.62074 19.3706 6.80304 19.6253 5.18265C19.7401 4.47372 19.6302 3.91671 19.2982 3.52661C18.9336 3.09826 18.287 2.8717 17.4284 2.8717ZM17.7243 5.27417C17.584 6.19464 16.8807 6.19464 16.2007 6.19464H15.8136L16.0852 4.4756C16.1013 4.3717 16.1913 4.29518 16.2963 4.29518H16.4738C16.937 4.29518 17.374 4.29518 17.5998 4.55924C17.7344 4.71678 17.7757 4.95084 17.7243 5.27417Z" fill="#253B80"/>
<path d="M25.0963 5.24456H23.8679C23.7632 5.24456 23.6728 5.32108 23.6567 5.42498L23.6023 5.76856L23.5164 5.64403C23.2505 5.25806 22.6574 5.12903 22.0656 5.12903C20.7081 5.12903 19.5487 6.15716 19.3229 7.59938C19.2055 8.31881 19.3724 9.00673 19.7805 9.48647C20.1548 9.92758 20.6905 10.1114 21.3277 10.1114C22.4215 10.1114 23.028 9.40808 23.028 9.40808L22.9733 9.74941C22.9526 9.87994 23.0532 9.99697 23.1841 9.99697H24.2906C24.4665 9.99697 24.6151 9.86944 24.6428 9.69577L25.3067 5.49137C25.3277 5.36196 25.2276 5.24456 25.0963 5.24456ZM23.384 7.63539C23.2655 8.33719 22.7085 8.8083 21.998 8.8083C21.6413 8.8083 21.3563 8.6939 21.1732 8.4771C20.9917 8.2618 20.9226 7.95535 20.9804 7.61401C21.0911 6.91822 21.6575 6.43172 22.357 6.43172C22.7058 6.43172 22.9894 6.54763 23.1762 6.7663C23.3634 6.98723 23.4376 7.29556 23.384 7.63539Z" fill="#253B80"/>
<path d="M31.6384 5.24451H30.404C30.2862 5.24451 30.1756 5.30302 30.1088 5.40092L28.4063 7.90879L27.6846 5.49882C27.6392 5.34803 27.5 5.24451 27.3425 5.24451H26.1294C25.982 5.24451 25.8796 5.38854 25.9265 5.52733L27.2862 9.51755L26.0079 11.3221C25.9074 11.4643 26.0087 11.6597 26.1823 11.6597H27.4153C27.5323 11.6597 27.6418 11.6027 27.7082 11.5067L31.814 5.58021C31.9122 5.43843 31.8113 5.24451 31.6384 5.24451Z" fill="#253B80"/>
<path d="M35.7262 2.8717H33.1606C32.9854 2.8717 32.8361 2.99924 32.8088 3.17253L31.7712 9.75052C31.7506 9.8803 31.8511 9.99733 31.9821 9.99733H33.2986C33.4209 9.99733 33.5256 9.90805 33.5447 9.78652L33.8391 7.92194C33.8661 7.74827 34.0158 7.62074 34.191 7.62074H35.0027C36.6928 7.62074 37.6677 6.80304 37.9228 5.18265C38.0379 4.47372 37.9273 3.91671 37.5953 3.52661C37.2311 3.09826 36.5848 2.8717 35.7262 2.8717ZM36.0222 5.27417C35.8823 6.19464 35.179 6.19464 34.4985 6.19464H34.1118L34.3838 4.4756C34.3999 4.3717 34.4892 4.29518 34.5946 4.29518H34.772C35.2348 4.29518 35.6722 4.29518 35.898 4.55924C36.0327 4.71678 36.0736 4.95084 36.0222 5.27417Z" fill="#179BD7"/>
<path d="M43.3935 5.24456H42.1658C42.0604 5.24456 41.9708 5.32108 41.955 5.42498L41.9007 5.76856L41.8144 5.64403C41.5484 5.25806 40.9558 5.12903 40.3639 5.12903C39.0064 5.12903 37.8474 6.15716 37.6216 7.59938C37.5046 8.31881 37.6707 9.00673 38.0788 9.48647C38.4539 9.92758 38.9888 10.1114 39.6261 10.1114C40.7199 10.1114 41.3264 9.40808 41.3264 9.40808L41.2716 9.74941C41.251 9.87994 41.3515 9.99697 41.4832 9.99697H42.5893C42.7645 9.99697 42.9138 9.86944 42.9412 9.69577L43.6054 5.49137C43.6257 5.36196 43.5252 5.24456 43.3935 5.24456ZM41.6812 7.63539C41.5634 8.33719 41.0057 8.8083 40.2953 8.8083C39.9393 8.8083 39.6535 8.6939 39.4704 8.4771C39.2889 8.2618 39.2206 7.95535 39.2776 7.61401C39.389 6.91822 39.9547 6.43172 40.6542 6.43172C41.0031 6.43172 41.2866 6.54763 41.4734 6.7663C41.6613 6.98723 41.7356 7.29556 41.6812 7.63539Z" fill="#179BD7"/>
<path d="M44.8417 3.05213L43.7888 9.75052C43.7682 9.88031 43.8687 9.99733 43.9996 9.99733H45.0581C45.2341 9.99733 45.3833 9.8698 45.4103 9.69614L46.4486 3.11852C46.4692 2.98874 46.3687 2.87134 46.2378 2.87134H45.0525C44.9479 2.87171 44.8578 2.94823 44.8417 3.05213Z" fill="#179BD7"/>
<path d="M2.82061 11.2756L3.01678 10.0295L2.5798 10.0194H0.493164L1.94327 0.824768C1.94777 0.797011 1.9624 0.77113 1.98378 0.75275C2.00516 0.734371 2.03254 0.724243 2.06105 0.724243H5.57941C6.74745 0.724243 7.55352 0.967303 7.97437 1.44705C8.17167 1.6721 8.29733 1.90728 8.35809 2.1661C8.42186 2.43766 8.42298 2.76212 8.36072 3.15784L8.35622 3.18672V3.44028L8.55351 3.55206C8.71968 3.64021 8.85171 3.74111 8.95299 3.85664C9.12178 4.04906 9.23093 4.29362 9.27707 4.58356C9.3247 4.88176 9.30895 5.2366 9.23093 5.63832C9.14091 6.10044 8.99537 6.50291 8.79883 6.83224C8.61803 7.13569 8.38772 7.38738 8.11428 7.58243C7.85322 7.76772 7.54302 7.90838 7.19231 7.9984C6.85247 8.08692 6.465 8.13156 6.04002 8.13156H5.76621C5.57041 8.13156 5.38024 8.20208 5.23095 8.32848C5.08129 8.45752 4.98226 8.63381 4.95188 8.82661L4.93125 8.93876L4.58467 11.1349L4.56891 11.2156C4.56479 11.2411 4.55766 11.2538 4.54716 11.2625C4.53778 11.2703 4.52428 11.2756 4.51115 11.2756H2.82061Z" fill="#253B80"/>
<path d="M8.73994 3.21606C8.72944 3.28321 8.71744 3.35185 8.70393 3.42237C8.23994 5.80457 6.65255 6.62753 4.62518 6.62753H3.59293C3.34499 6.62753 3.13607 6.80757 3.09743 7.05213L2.56893 10.404L2.41927 11.3541C2.39414 11.5146 2.51792 11.6594 2.67996 11.6594H4.51078C4.72758 11.6594 4.91175 11.5018 4.94589 11.288L4.96389 11.195L5.3086 9.00748L5.33073 8.88746C5.36449 8.6729 5.54903 8.51536 5.76584 8.51536H6.03965C7.81346 8.51536 9.20205 7.79519 9.6079 5.71118C9.77745 4.84059 9.68967 4.11366 9.24106 3.60241C9.10528 3.44825 8.93687 3.32034 8.73994 3.21606Z" fill="#179BD7"/>
<path d="M8.25382 3.0225C8.18293 3.00187 8.10978 2.98311 8.03477 2.96623C7.95937 2.94973 7.8821 2.9351 7.80258 2.92235C7.52427 2.87734 7.21932 2.85596 6.89261 2.85596H4.13493C4.06704 2.85596 4.00253 2.87134 3.94476 2.89909C3.81761 2.96023 3.72308 3.08064 3.7002 3.22805L3.11356 6.94371L3.09668 7.05211C3.13531 6.80755 3.34424 6.62751 3.59218 6.62751H4.62443C6.6518 6.62751 8.23919 5.80418 8.70318 3.42235C8.71706 3.35183 8.72869 3.28319 8.73919 3.21605C8.62178 3.15378 8.49463 3.10052 8.35772 3.05513C8.32396 3.04388 8.28908 3.033 8.25382 3.0225Z" fill="#222D65"/>
<path d="M3.70086 3.22804C3.72374 3.08063 3.81826 2.96023 3.94542 2.89946C4.00356 2.87171 4.0677 2.85633 4.13559 2.85633H6.89326C7.21997 2.85633 7.52492 2.87771 7.80324 2.92272C7.88276 2.93547 7.96003 2.9501 8.03542 2.9666C8.11044 2.98348 8.18358 3.00224 8.25447 3.02287C8.28973 3.03337 8.32461 3.04425 8.35875 3.05513C8.49566 3.10051 8.62281 3.15415 8.74022 3.21604C8.87825 2.3357 8.73909 1.7363 8.2631 1.19354C7.73835 0.596023 6.79124 0.34021 5.57932 0.34021H2.06095C1.81339 0.34021 1.60222 0.520254 1.56396 0.765189L0.0984733 10.0543C0.0695912 10.2381 0.211376 10.4039 0.396671 10.4039H2.56883L3.11421 6.9437L3.70086 3.22804Z" fill="#253B80"/>
</svg>
