<svg width="211" height="40" viewBox="0 0 211 40" fill="none" xmlns="http://www.w3.org/2000/svg">
<rect width="210.45" height="40" fill="#FFC43A"/>
<path d="M56.218 25.5V15.476H59.886C61.818 15.476 63.008 16.456 63.008 18.066C63.008 19.242 62.49 20.04 61.454 20.446C62.616 20.824 63.204 21.636 63.204 22.868C63.204 24.478 62 25.5 60.096 25.5H56.218ZM59.872 16.372H57.226V20.04H59.998C61.258 20.04 61.972 19.34 61.972 18.15C61.972 17.03 61.216 16.372 59.872 16.372ZM60.096 20.922H57.226V24.59H60.096C61.412 24.59 62.182 23.904 62.182 22.742C62.182 21.608 61.398 20.922 60.096 20.922ZM69.2927 18.724H70.2587V25.5H69.4187L69.2927 24.352C68.9147 25.136 67.9767 25.668 66.9127 25.668C65.3167 25.668 64.4487 24.576 64.4487 22.924V18.71H65.4287V22.616C65.4287 24.226 66.1427 24.8 67.2207 24.8C68.5227 24.8 69.2927 23.932 69.2927 22.322V18.724ZM71.305 28.454V27.656H72.047C72.635 27.656 73.223 27.614 73.559 26.704L73.853 25.906L71.109 18.724H72.131L74.315 24.632L76.457 18.724H77.451L74.343 27.054C73.951 28.118 73.293 28.552 72.327 28.552C71.921 28.552 71.613 28.524 71.305 28.454ZM83.3316 25.5L81.0916 18.724H82.0856L83.4156 22.812C83.5696 23.26 83.6956 23.722 83.8356 24.268C83.9476 23.722 84.1716 23.036 84.2416 22.812L85.5856 18.724H86.5796L87.9096 22.812C88.0356 23.176 88.2036 23.764 88.3296 24.268C88.4696 23.708 88.4976 23.54 88.7356 22.812L90.0796 18.724H91.0876L88.7916 25.5H87.8536L86.4536 21.244C86.2856 20.74 86.1736 20.32 86.0896 19.914C85.9916 20.278 85.8796 20.684 85.6976 21.244L84.2976 25.5H83.3316ZM92.4902 16.862C92.0982 16.862 91.7762 16.54 91.7762 16.148C91.7762 15.756 92.0982 15.42 92.4902 15.42C92.8822 15.42 93.2182 15.756 93.2182 16.148C93.2182 16.54 92.8822 16.862 92.4902 16.862ZM92.0142 25.5V18.724H92.9802V25.5H92.0142ZM96.2687 25.5H95.3167V19.536H93.9587V18.724H95.3167V16.582H96.2687V18.724H97.6267V19.536H96.2687V25.5ZM99.5706 25.486H98.6046V15.294H99.5706V19.9C100.005 19.088 100.831 18.542 101.965 18.542C103.743 18.542 104.541 19.648 104.541 21.356V25.5H103.575V21.566C103.575 19.984 102.833 19.424 101.783 19.424C100.327 19.424 99.5706 20.502 99.5706 21.804V25.486Z" fill="#253B80"/>
<path d="M126.426 16.8718H123.861C123.686 16.8718 123.536 16.9994 123.509 17.1726L122.471 23.7506C122.451 23.8804 122.551 23.9974 122.683 23.9974H123.908C124.083 23.9974 124.233 23.8699 124.26 23.6962L124.54 21.9221C124.567 21.7484 124.716 21.6209 124.892 21.6209H125.704C127.393 21.6209 128.369 20.8032 128.623 19.1828C128.738 18.4738 128.628 17.9168 128.296 17.5267C127.932 17.0984 127.285 16.8718 126.426 16.8718ZM126.722 19.2743C126.582 20.1948 125.879 20.1948 125.199 20.1948H124.812L125.083 18.4757C125.099 18.3718 125.189 18.2953 125.294 18.2953H125.472C125.935 18.2953 126.372 18.2953 126.598 18.5594C126.732 18.7169 126.774 18.951 126.722 19.2743Z" fill="#253B80"/>
<path d="M134.095 19.2447H132.867C132.762 19.2447 132.672 19.3212 132.656 19.4251L132.601 19.7687L132.515 19.6442C132.249 19.2582 131.656 19.1292 131.065 19.1292C129.707 19.1292 128.548 20.1573 128.322 21.5995C128.205 22.3189 128.371 23.0069 128.78 23.4866C129.154 23.9277 129.689 24.1115 130.327 24.1115C131.421 24.1115 132.027 23.4082 132.027 23.4082L131.972 23.7495C131.952 23.8801 132.052 23.9971 132.183 23.9971H133.29C133.466 23.9971 133.614 23.8696 133.642 23.6959L134.306 19.4915C134.327 19.3621 134.227 19.2447 134.095 19.2447ZM132.383 21.6355C132.264 22.3373 131.707 22.8084 130.997 22.8084C130.64 22.8084 130.355 22.694 130.172 22.4772C129.991 22.2619 129.922 21.9555 129.979 21.6141C130.09 20.9183 130.656 20.4318 131.356 20.4318C131.705 20.4318 131.988 20.5477 132.175 20.7664C132.362 20.9874 132.437 21.2957 132.383 21.6355Z" fill="#253B80"/>
<path d="M140.637 19.2446H139.403C139.285 19.2446 139.175 19.3031 139.108 19.401L137.405 21.9089L136.684 19.4989C136.638 19.3482 136.499 19.2446 136.342 19.2446H135.128C134.981 19.2446 134.879 19.3887 134.926 19.5274L136.285 23.5177L135.007 25.3222C134.906 25.4644 135.008 25.6598 135.181 25.6598H136.414C136.531 25.6598 136.641 25.6028 136.707 25.5068L140.813 19.5803C140.911 19.4386 140.81 19.2446 140.637 19.2446Z" fill="#253B80"/>
<path d="M144.725 16.8718H142.16C141.984 16.8718 141.835 16.9994 141.808 17.1726L140.77 23.7506C140.75 23.8804 140.85 23.9974 140.981 23.9974H142.298C142.42 23.9974 142.525 23.9082 142.544 23.7866L142.838 21.9221C142.865 21.7484 143.015 21.6209 143.19 21.6209H144.002C145.692 21.6209 146.667 20.8032 146.922 19.1828C147.037 18.4738 146.926 17.9168 146.594 17.5267C146.23 17.0984 145.584 16.8718 144.725 16.8718ZM145.021 19.2743C144.881 20.1948 144.178 20.1948 143.498 20.1948H143.111L143.383 18.4757C143.399 18.3718 143.488 18.2953 143.594 18.2953H143.771C144.234 18.2953 144.671 18.2953 144.897 18.5594C145.032 18.7169 145.073 18.951 145.021 19.2743Z" fill="#179BD7"/>
<path d="M152.391 19.2447H151.163C151.058 19.2447 150.968 19.3212 150.952 19.4251L150.898 19.7687L150.811 19.6442C150.546 19.2582 149.953 19.1292 149.361 19.1292C148.004 19.1292 146.844 20.1573 146.619 21.5995C146.502 22.3189 146.668 23.0069 147.076 23.4866C147.451 23.9277 147.986 24.1115 148.623 24.1115C149.717 24.1115 150.323 23.4082 150.323 23.4082L150.269 23.7495C150.248 23.8801 150.349 23.9971 150.48 23.9971H151.586C151.762 23.9971 151.911 23.8696 151.938 23.6959L152.603 19.4915C152.623 19.3621 152.522 19.2447 152.391 19.2447ZM150.678 21.6355C150.561 22.3373 150.003 22.8084 149.292 22.8084C148.936 22.8084 148.651 22.694 148.468 22.4772C148.286 22.2619 148.218 21.9555 148.275 21.6141C148.386 20.9183 148.952 20.4318 149.651 20.4318C150 20.4318 150.284 20.5477 150.47 20.7664C150.658 20.9874 150.733 21.2957 150.678 21.6355Z" fill="#179BD7"/>
<path d="M153.839 17.0521L152.786 23.7505C152.765 23.8803 152.866 23.9973 152.997 23.9973H154.055C154.231 23.9973 154.38 23.8698 154.407 23.6961L155.446 17.1185C155.466 16.9887 155.366 16.8713 155.235 16.8713H154.05C153.945 16.8717 153.855 16.9482 153.839 17.0521Z" fill="#179BD7"/>
<path d="M111.818 25.2759L112.014 24.0299L111.577 24.0198H109.49L110.94 14.8251C110.945 14.7974 110.959 14.7715 110.981 14.7531C111.002 14.7347 111.03 14.7246 111.058 14.7246H114.576C115.745 14.7246 116.551 14.9677 116.971 15.4474C117.169 15.6725 117.294 15.9076 117.355 16.1665C117.419 16.438 117.42 16.7625 117.358 17.1582L117.353 17.1871V17.4407L117.551 17.5524C117.717 17.6406 117.849 17.7415 117.95 17.857C118.119 18.0494 118.228 18.294 118.274 18.5839C118.322 18.8821 118.306 19.237 118.228 19.6387C118.138 20.1008 117.992 20.5033 117.796 20.8326C117.615 21.1361 117.385 21.3877 117.111 21.5828C116.85 21.7681 116.54 21.9087 116.189 21.9988C115.85 22.0873 115.462 22.1319 115.037 22.1319H114.763C114.567 22.1319 114.377 22.2024 114.228 22.3288C114.078 22.4579 113.979 22.6342 113.949 22.827L113.928 22.9391L113.582 25.1353L113.566 25.2159C113.562 25.2414 113.555 25.2542 113.544 25.2628C113.535 25.2707 113.521 25.2759 113.508 25.2759H111.818Z" fill="#253B80"/>
<path d="M117.738 17.2161C117.727 17.2832 117.715 17.3518 117.702 17.4224C117.238 19.8046 115.651 20.6275 113.623 20.6275H112.591C112.343 20.6275 112.134 20.8076 112.095 21.0521L111.567 24.404L111.417 25.3541C111.392 25.5146 111.516 25.6594 111.678 25.6594H113.509C113.726 25.6594 113.91 25.5018 113.944 25.288L113.962 25.195L114.307 23.0075L114.329 22.8875C114.363 22.6729 114.547 22.5154 114.764 22.5154H115.038C116.812 22.5154 118.2 21.7952 118.606 19.7112C118.775 18.8406 118.688 18.1137 118.239 17.6024C118.103 17.4482 117.935 17.3203 117.738 17.2161Z" fill="#179BD7"/>
<path d="M117.253 17.0227C117.182 17.0021 117.109 16.9834 117.034 16.9665C116.958 16.95 116.881 16.9353 116.802 16.9226C116.523 16.8776 116.218 16.8562 115.892 16.8562H113.134C113.066 16.8562 113.002 16.8716 112.944 16.8993C112.817 16.9605 112.722 17.0809 112.699 17.2283L112.113 20.944L112.096 21.0524C112.134 20.8078 112.343 20.6278 112.591 20.6278H113.623C115.651 20.6278 117.238 19.8044 117.702 17.4226C117.716 17.3521 117.728 17.2834 117.738 17.2163C117.621 17.154 117.494 17.1008 117.357 17.0554C117.323 17.0441 117.288 17.0332 117.253 17.0227Z" fill="#222D65"/>
<path d="M112.7 17.2282C112.723 17.0808 112.817 16.9603 112.944 16.8996C113.003 16.8718 113.067 16.8564 113.135 16.8564H115.892C116.219 16.8564 116.524 16.8778 116.802 16.9228C116.882 16.9356 116.959 16.9502 117.034 16.9667C117.109 16.9836 117.183 17.0024 117.253 17.023C117.289 17.0335 117.324 17.0444 117.358 17.0552C117.495 17.1006 117.622 17.1543 117.739 17.2162C117.877 16.3358 117.738 15.7364 117.262 15.1937C116.737 14.5961 115.79 14.3403 114.578 14.3403H111.06C110.812 14.3403 110.601 14.5204 110.563 14.7653L109.097 24.0545C109.069 24.2383 109.21 24.404 109.396 24.404H111.568L112.113 20.9438L112.7 17.2282Z" fill="#253B80"/>
</svg>
